<?xml version="1.0" standalone="no"?>
<!DOCTYPE svg PUBLIC "-//W3C//DTD SVG 20010904//EN"
 "http://www.w3.org/TR/2001/REC-SVG-20010904/DTD/svg10.dtd">
<svg version="1.0" xmlns="http://www.w3.org/2000/svg"
 width="160.000000pt" height="160.000000pt" viewBox="0 0 160.000000 160.000000"
 preserveAspectRatio="xMidYMid meet">
<metadata>
Created by potrace 1.14, written by Peter Selinger 2001-2017
</metadata>
<g transform="translate(0.000000,160.000000) scale(0.100000,-0.100000)"
fill="#000000" stroke="none">
<path d="M131 1510 c-1 -60 2 -70 40 -127 22 -35 45 -65 50 -68 16 -10 10 22
-7 35 -32 27 -65 100 -73 162 l-8 63 -2 -65z"/>
<path d="M575 1506 c-68 -30 -103 -101 -92 -190 l6 -45 -57 -4 c-43 -2 -52 -5
-34 -11 12 -5 22 -14 22 -22 0 -7 38 -34 85 -60 54 -30 82 -51 76 -57 -19 -19
-139 45 -263 139 l-73 54 -8 -60 c-4 -33 -17 -85 -28 -115 -17 -47 -25 -55
-57 -66 -94 -30 -137 -95 -128 -193 3 -33 5 -88 5 -121 0 -49 5 -68 26 -99 22
-32 24 -41 13 -54 -19 -22 -16 -130 4 -168 10 -17 29 -39 44 -48 36 -25 115
-23 165 4 l40 20 34 -25 c36 -28 90 -41 130 -31 14 4 43 23 65 42 22 20 44 33
50 29 6 -4 8 -26 4 -58 -8 -67 13 -119 58 -147 37 -22 88 -26 121 -8 12 7 47
11 77 9 43 -1 66 4 101 23 l46 24 -5 -43 c-7 -66 5 -111 41 -149 65 -68 167
-70 229 -4 26 28 29 29 45 12 23 -22 76 -44 110 -44 44 0 110 38 135 78 16 27
23 52 23 92 0 93 -59 161 -152 176 l-42 6 20 37 c53 99 -17 225 -126 226 -25
0 -45 2 -45 5 1 15 30 40 47 40 47 0 103 74 103 135 0 64 -67 135 -127 135
-11 0 -29 11 -42 23 -20 22 -20 25 -6 37 28 23 45 67 45 117 0 91 -59 147
-148 141 l-47 -3 -22 47 c-38 82 -120 111 -191 68 -18 -11 -34 -20 -36 -20 -2
0 -14 20 -26 45 -39 80 -135 116 -215 81z m49 -58 c7 -11 7 -26 0 -45 -8 -23
-15 -28 -44 -28 -31 0 -35 3 -38 27 -2 17 4 34 18 48 24 24 48 23 64 -2z
m-313 -223 c23 -20 50 -40 60 -46 29 -15 24 -55 -6 -63 -32 -8 -55 4 -88 48
-26 33 -37 96 -18 96 5 0 28 -16 52 -35z m494 -83 c-3 -3 -15 0 -28 6 -12 6
-37 15 -55 19 l-34 8 39 26 38 25 23 -40 c12 -21 20 -41 17 -44z m-508 -67
c-5 -13 -15 -15 -44 -9 -53 9 -53 10 -35 55 l15 40 35 -35 c23 -22 33 -40 29
-51z m671 54 c4 -30 -28 -62 -52 -53 -18 7 -21 36 -5 65 15 29 53 21 57 -12z
m-280 -46 c4 -25 -39 -59 -63 -49 -18 7 -20 47 -3 64 20 20 63 10 66 -15z
m-314 -32 c3 -4 -1 -16 -8 -27 -12 -15 -16 -16 -30 -5 -15 13 -15 15 1 27 21
16 30 17 37 5z m-200 -17 c39 -15 -1 -94 -48 -94 -35 0 -49 22 -35 53 16 34
53 53 83 41z m374 -72 c3 -17 -2 -22 -17 -22 -16 0 -21 6 -21 26 0 33 33 30
38 -4z m385 -94 c-7 -13 -80 -9 -91 5 -6 7 -6 21 -1 34 l8 23 45 -28 c24 -15
42 -30 39 -34z m-725 14 c5 -35 -34 -72 -75 -72 -29 0 -33 3 -33 25 0 61 100
104 108 47z m279 -3 c17 -17 4 -39 -22 -39 -31 0 -39 14 -19 34 18 19 26 20
41 5z m330 -34 c8 -22 -6 -33 -17 -15 -13 20 -12 30 0 30 6 0 13 -7 17 -15z
m73 -73 c0 -25 -19 -42 -47 -42 -27 0 -30 16 -6 42 21 23 53 24 53 0z m-355
-43 c0 -17 -6 -25 -22 -27 -19 -3 -23 1 -23 21 0 25 14 38 35 33 6 -2 10 -14
10 -27z m-162 -94 c-25 -19 -28 -11 -6 21 15 23 19 25 21 10 2 -10 -5 -24 -15
-31z m715 -64 c3 -8 -1 -12 -9 -9 -7 2 -15 10 -17 17 -3 8 1 12 9 9 7 -2 15
-10 17 -17z m7 -102 c0 -15 -7 -25 -18 -27 -22 -4 -33 24 -17 43 18 21 35 13
35 -16z"/>
</g>
</svg>
